<?xml version="1.0" encoding="UTF-8"?>
<svg xmlns="http://www.w3.org/2000/svg" viewBox="0 0 712 736" role="img" aria-label="ReleaseSeal gradient mark">
  <title>ReleaseSeal gradient mark</title>
  <defs>
    <linearGradient id="releaseSealGradient" gradientUnits="userSpaceOnUse" x1="0" y1="0" x2="0" y2="736.00">
      <stop offset="0%" stop-color="#FFFFFF"/>
      <stop offset="20%" stop-color="#FFFFFF"/>
      <stop offset="42%" stop-color="#E8FDFF"/>
      <stop offset="66%" stop-color="#7BEBFF"/>
      <stop offset="100%" stop-color="#2AC2F5"/>
    </linearGradient>
  </defs>
  <g fill="url(#releaseSealGradient)" fill-rule="nonzero">
<path d="M 672.00 696.52 L 620.00 695.79 L 618.31 695.00 L 636.11 663.00 L 648.00 633.73 L 653.16 617.00 L 657.14 599.00 L 661.06 569.00 L 661.12 542.00 L 657.07 508.00 L 648.20 472.00 L 638.00 442.59 L 640.67 474.00 L 640.67 507.00 L 638.71 528.00 L 633.70 553.00 L 624.54 580.00 L 616.65 596.00 L 600.68 619.00 L 595.00 624.62 L 593.00 625.75 L 591.59 625.00 L 602.06 597.00 L 612.03 560.00 L 617.10 529.00 L 618.20 515.00 L 618.18 491.00 L 616.07 466.00 L 611.09 440.00 L 593.35 382.00 L 584.29 344.00 L 581.29 320.00 L 582.05 283.00 L 567.81 298.00 L 550.00 314.66 L 520.00 337.60 L 501.00 349.58 L 476.00 362.70 L 455.00 371.42 L 452.00 371.98 L 451.15 371.00 L 483.00 343.09 L 513.86 314.00 L 551.15 274.00 L 572.07 248.00 L 593.07 219.00 L 610.12 192.00 L 624.22 165.00 L 631.22 145.00 L 634.00 125.83 L 614.00 146.71 L 601.00 156.49 L 581.00 167.66 L 569.00 172.68 L 565.61 173.00 L 568.00 169.29 L 594.98 147.00 L 609.01 133.00 L 621.16 118.00 L 626.21 109.00 L 630.07 99.00 L 631.20 92.00 L 631.14 77.00 L 627.25 60.00 L 618.00 53.81 L 597.00 43.89 L 580.00 52.73 L 564.00 59.66 L 531.00 70.58 L 492.00 70.82 L 469.00 72.91 L 442.00 78.00 L 420.00 84.79 L 399.00 93.82 L 374.00 108.80 L 358.00 120.98 L 338.88 140.00 L 325.00 157.12 L 311.83 178.00 L 298.83 206.00 L 288.90 236.00 L 280.91 270.00 L 275.92 299.00 L 270.89 344.00 L 265.63 406.00 L 261.62 438.00 L 255.68 463.00 L 246.66 483.00 L 239.00 493.31 L 234.00 497.57 L 231.20 497.00 L 235.12 467.00 L 237.00 425.75 L 203.00 457.39 L 149.00 500.76 L 123.00 522.96 L 102.00 542.79 L 89.85 556.00 L 80.81 567.00 L 69.89 583.00 L 60.86 600.00 L 56.00 612.35 L 51.81 626.00 L 47.90 646.00 L 46.80 657.00 L 46.67 685.00 L 13.00 694.67 L 11.30 694.00 L 11.26 670.00 L 12.35 657.00 L 14.43 643.00 L 19.49 622.00 L 26.30 603.00 L 32.54 590.00 L 50.44 561.00 L 73.43 533.00 L 93.00 513.32 L 115.00 493.31 L 168.00 449.06 L 190.00 429.07 L 224.00 395.21 L 235.00 382.45 L 239.43 338.00 L 246.34 290.00 L 252.36 261.00 L 261.54 228.00 L 271.29 201.00 L 283.57 175.00 L 297.39 152.00 L 313.35 131.00 L 331.00 112.41 L 345.00 100.28 L 362.00 87.53 L 384.00 74.66 L 409.00 63.42 L 439.00 54.30 L 466.00 49.43 L 492.00 47.29 L 531.73 48.00 L 563.00 36.15 L 603.00 16.51 L 616.00 11.31 L 627.00 11.33 L 630.00 12.41 L 636.00 16.38 L 641.55 23.00 L 649.69 43.00 L 654.52 67.00 L 668.00 71.39 L 679.00 77.29 L 689.00 84.29 L 698.65 94.00 L 699.53 96.00 L 698.00 96.55 L 691.00 91.89 L 676.00 84.82 L 664.89 81.00 L 656.72 80.00 L 656.98 85.00 L 658.00 86.67 L 672.00 96.29 L 684.68 109.00 L 692.59 120.00 L 699.65 133.00 L 699.74 135.00 L 699.00 136.40 L 698.00 135.71 L 683.00 119.88 L 673.00 111.89 L 664.00 105.83 L 659.10 104.00 L 659.56 116.00 L 658.62 129.00 L 655.46 149.00 L 650.66 168.00 L 635.74 208.00 L 611.00 257.44 L 609.84 268.00 L 609.80 292.00 L 610.91 306.00 L 612.92 320.00 L 618.84 345.00 L 626.80 368.00 L 655.59 431.00 L 670.60 469.00 L 680.71 502.00 L 688.68 541.00 L 690.69 555.00 L 692.65 583.00 L 690.71 625.00 L 685.55 654.00 L 679.58 675.00 L 672.00 696.52 Z"/>
    <path d="M 212.00 723.13 L 189.00 723.52 L 124.00 721.73 L 67.00 718.68 L 52.00 717.41 L 47.09 716.00 L 51.34 710.00 L 69.00 692.27 L 82.00 682.44 L 95.00 674.46 L 123.00 661.39 L 159.00 648.04 L 172.00 642.07 L 185.00 635.16 L 199.00 626.08 L 210.00 617.18 L 224.17 603.00 L 241.00 581.34 L 242.00 581.38 L 242.78 583.00 L 242.63 595.00 L 239.71 608.00 L 236.70 616.00 L 226.59 634.00 L 218.73 643.00 L 209.00 651.71 L 200.00 657.66 L 189.00 662.73 L 169.00 669.71 L 139.00 677.89 L 121.00 683.88 L 108.55 689.00 L 94.31 697.00 L 138.00 700.10 L 169.00 701.17 L 211.00 701.17 L 255.00 699.10 L 293.00 695.12 L 326.00 689.13 L 352.00 682.04 L 375.00 672.07 L 389.00 662.11 L 395.23 655.00 L 398.18 650.00 L 400.21 645.00 L 402.07 635.00 L 401.21 620.00 L 398.08 608.00 L 389.20 590.00 L 378.05 575.00 L 360.34 557.00 L 360.00 555.66 L 369.00 558.29 L 379.00 563.33 L 397.00 575.34 L 411.64 589.00 L 420.45 600.00 L 428.68 613.00 L 434.64 627.00 L 437.61 640.00 L 437.71 656.00 L 436.44 663.00 L 433.55 671.00 L 428.72 679.00 L 418.00 689.67 L 407.00 696.69 L 391.00 703.64 L 381.00 706.66 L 341.00 714.64 L 282.00 720.60 L 243.00 722.70 L 212.00 723.13 Z"/>
    <path d="M 473.00 209.26 L 472.00 209.73 L 471.07 209.00 L 471.19 208.00 L 471.32 207.00 L 472.00 206.10 L 472.07 206.00 L 472.26 205.00 L 472.62 204.00 L 473.00 203.57 L 473.20 203.00 L 473.31 202.00 L 474.00 201.24 L 474.17 201.00 L 474.28 200.00 L 475.00 199.22 L 475.18 199.00 L 475.27 198.00 L 476.00 197.17 L 476.14 197.00 L 476.28 196.00 L 477.00 195.13 L 477.11 195.00 L 477.27 194.00 L 478.00 193.18 L 478.15 193.00 L 478.34 192.00 L 479.00 191.32 L 479.23 191.00 L 479.60 190.00 L 480.00 189.60 L 480.27 189.00 L 481.00 188.10 L 481.08 188.00 L 481.32 187.00 L 482.00 186.32 L 482.24 186.00 L 482.81 185.00 L 483.00 184.81 L 483.27 184.00 L 484.00 183.23 L 484.20 183.00 L 484.58 182.00 L 485.00 181.56 L 485.27 181.00 L 486.00 180.27 L 486.22 180.00 L 486.82 179.00 L 487.00 178.82 L 487.30 178.00 L 488.00 177.29 L 488.24 177.00 L 489.00 176.12 L 489.11 176.00 L 489.40 175.00 L 490.00 174.40 L 490.25 174.00 L 491.00 173.20 L 491.19 173.00 L 491.48 172.00 L 492.00 171.48 L 492.28 171.00 L 493.00 170.25 L 493.22 170.00 L 494.00 169.03 L 494.03 169.00 L 494.57 168.00 L 495.00 167.57 L 495.30 167.00 L 496.00 166.29 L 496.25 166.00 L 497.00 165.13 L 497.12 165.00 L 497.52 164.00 L 498.00 163.52 L 498.31 163.00 L 499.00 162.31 L 499.26 162.00 L 500.00 161.22 L 500.20 161.00 L 501.00 160.04 L 501.04 160.00 L 501.46 159.00 L 502.00 158.46 L 502.30 158.00 L 503.00 157.29 L 503.24 157.00 L 504.00 156.24 L 504.23 156.00 L 505.00 155.12 L 505.11 155.00 L 505.66 154.00 L 506.00 153.66 L 506.39 153.00 L 507.00 152.39 L 507.32 152.00 L 508.00 151.32 L 508.27 151.00 L 509.00 150.27 L 509.25 150.00 L 510.00 149.19 L 510.19 149.00 L 511.00 148.11 L 511.11 148.00 L 511.82 147.00 L 512.00 146.82 L 512.54 146.00 L 513.00 145.54 L 513.36 145.00 L 514.00 144.36 L 514.31 144.00 L 515.00 143.31 L 515.30 143.00 L 516.00 142.30 L 516.26 142.00 L 517.00 141.20 L 517.20 141.00 L 518.00 140.22 L 518.21 140.00 L 519.00 139.23 L 519.23 139.00 L 520.00 138.21 L 520.20 138.00 L 521.00 137.17 L 521.17 137.00 L 522.00 136.12 L 522.12 136.00 L 523.00 135.12 L 523.11 135.00 L 524.00 134.08 L 524.08 134.00 L 525.00 133.09 L 525.09 133.00 L 526.00 132.13 L 526.13 132.00 L 527.00 131.15 L 527.15 131.00 L 528.00 130.18 L 528.18 130.00 L 529.00 129.21 L 529.21 129.00 L 530.00 128.24 L 530.25 128.00 L 531.00 127.24 L 531.26 127.00 L 532.00 126.27 L 532.30 126.00 L 533.00 125.29 L 533.36 125.00 L 534.00 124.37 L 534.38 124.00 L 535.00 123.38 L 535.50 123.00 L 536.00 122.50 L 536.71 122.00 L 537.00 121.71 L 538.00 121.07 L 538.07 121.00 L 539.00 120.16 L 539.17 120.00 L 540.00 119.25 L 540.29 119.00 L 541.00 118.29 L 541.40 118.00 L 542.00 117.40 L 542.74 117.00 L 543.00 116.74 L 544.00 116.19 L 544.20 116.00 L 545.00 115.25 L 545.29 115.00 L 546.00 114.29 L 546.48 114.00 L 547.00 113.48 L 548.00 113.09 L 548.10 113.00 L 549.00 112.22 L 549.25 112.00 L 550.00 111.27 L 550.38 111.00 L 551.00 110.38 L 551.94 110.00 L 552.00 109.94 L 553.00 109.23 L 553.25 109.00 L 554.00 108.27 L 554.36 108.00 L 555.00 107.36 L 556.00 107.16 L 556.17 107.00 L 557.00 106.25 L 557.39 106.00 L 558.00 105.39 L 559.00 105.10 L 559.10 105.00 L 560.00 104.22 L 560.33 104.00 L 561.00 103.36 L 562.00 103.02 L 562.02 103.00 L 563.00 102.25 L 563.27 102.00 L 564.00 101.27 L 565.00 101.02 L 565.02 101.00 L 566.00 100.24 L 566.32 100.00 L 567.00 99.32 L 568.00 99.09 L 568.10 99.00 L 569.00 98.26 L 569.42 98.00 L 570.00 97.42 L 571.00 97.15 L 571.19 97.00 L 572.00 96.27 L 572.92 96.00 L 573.00 95.92 L 574.00 95.25 L 574.65 95.00 L 575.00 94.65 L 576.00 94.22 L 576.36 94.00 L 577.00 93.38 L 578.00 93.17 L 578.24 93.00 L 579.00 92.32 L 580.00 92.12 L 580.18 92.00 L 581.00 91.34 L 582.00 91.17 L 582.21 91.00 L 583.00 90.30 L 584.00 90.18 L 584.35 90.00 L 585.00 89.43 L 586.00 89.22 L 586.47 89.00 L 587.00 88.50 L 588.00 88.23 L 588.84 88.00 L 589.00 87.86 L 590.00 87.33 L 591.00 87.23 L 591.45 87.00 L 592.00 86.47 L 593.00 86.25 L 593.56 86.00 L 594.00 85.56 L 595.00 85.25 L 596.00 85.01 L 596.74 86.00 L 596.06 87.00 L 596.00 87.06 L 595.00 87.92 L 594.92 88.00 L 594.00 88.79 L 593.78 89.00 L 593.00 89.75 L 592.70 90.00 L 592.00 90.70 L 591.47 91.00 L 591.00 91.47 L 590.00 91.87 L 589.86 92.00 L 589.00 92.74 L 588.68 93.00 L 588.00 93.68 L 587.17 94.00 L 587.00 94.17 L 586.00 94.87 L 585.87 95.00 L 585.00 95.79 L 584.77 96.00 L 584.00 96.74 L 583.70 97.00 L 583.00 97.70 L 582.52 98.00 L 582.00 98.52 L 581.00 98.93 L 580.93 99.00 L 580.00 99.82 L 579.80 100.00 L 579.00 100.74 L 578.72 101.00 L 578.00 101.72 L 577.65 102.00 L 577.00 102.65 L 576.42 103.00 L 576.00 103.42 L 575.00 103.89 L 574.89 104.00 L 574.00 104.83 L 573.82 105.00 L 573.00 105.80 L 572.77 106.00 L 572.00 106.73 L 571.72 107.00 L 571.00 107.70 L 570.55 108.00 L 570.00 108.55 L 569.35 109.00 L 569.00 109.35 L 568.10 110.00 L 568.00 110.10 L 567.00 110.90 L 566.90 111.00 L 566.00 111.77 L 565.76 112.00 L 565.00 112.75 L 564.72 113.00 L 564.00 113.72 L 563.71 114.00 L 563.00 114.71 L 562.57 115.00 L 562.00 115.57 L 561.31 116.00 L 561.00 116.31 L 560.06 117.00 L 560.00 117.06 L 559.00 117.83 L 558.83 118.00 L 558.00 118.79 L 557.78 119.00 L 557.00 119.77 L 556.77 120.00 L 556.00 120.75 L 555.74 121.00 L 555.00 121.79 L 554.78 122.00 L 554.00 122.75 L 553.72 123.00 L 553.00 123.70 L 552.66 124.00 L 552.00 124.66 L 551.37 125.00 L 551.00 125.37 L 550.00 125.99 L 549.99 126.00 L 549.00 126.91 L 548.91 127.00 L 548.00 127.89 L 547.89 128.00 L 547.00 128.96 L 546.96 129.00 L 546.00 129.86 L 545.86 130.00 L 545.00 130.87 L 544.87 131.00 L 544.00 131.82 L 543.81 132.00 L 543.00 132.77 L 542.76 133.00 L 542.00 133.74 L 541.74 134.00 L 541.00 134.74 L 540.73 135.00 L 540.00 135.74 L 539.77 136.00 L 539.00 136.85 L 538.85 137.00 L 538.00 137.81 L 537.80 138.00 L 537.00 138.78 L 536.78 139.00 L 536.00 139.75 L 535.75 140.00 L 535.00 140.73 L 534.71 141.00 L 534.00 141.71 L 533.67 142.00 L 533.00 142.67 L 532.68 143.00 L 532.00 143.68 L 531.72 144.00 L 531.00 144.75 L 530.76 145.00 L 530.00 145.76 L 529.74 146.00 L 529.00 146.74 L 528.75 147.00 L 528.00 147.75 L 527.75 148.00 L 527.00 148.73 L 526.73 149.00 L 526.00 149.72 L 525.70 150.00 L 525.00 150.70 L 524.71 151.00 L 524.00 151.71 L 523.75 152.00 L 523.00 152.76 L 522.76 153.00 L 522.00 153.77 L 521.76 154.00 L 521.00 154.78 L 520.78 155.00 L 520.00 155.80 L 519.81 156.00 L 519.00 156.76 L 518.74 157.00 L 518.00 157.74 L 517.75 158.00 L 517.00 158.76 L 516.77 159.00 L 516.00 159.87 L 515.88 160.00 L 515.00 160.90 L 514.90 161.00 L 514.00 161.87 L 513.87 162.00 L 513.00 162.90 L 512.90 163.00 L 512.00 163.98 L 511.98 164.00 L 511.39 165.00 L 511.00 165.39 L 510.56 166.00 L 510.00 166.56 L 509.61 167.00 L 509.00 167.61 L 508.66 168.00 L 508.00 168.66 L 507.71 169.00 L 507.00 169.71 L 506.74 170.00 L 506.00 170.77 L 505.78 171.00 L 505.00 171.84 L 504.85 172.00 L 504.00 172.81 L 503.80 173.00 L 503.00 173.86 L 502.86 174.00 L 502.22 175.00 L 502.00 175.22 L 501.54 176.00 L 501.00 176.54 L 500.67 177.00 L 500.00 177.67 L 499.70 178.00 L 499.00 178.70 L 498.74 179.00 L 498.00 179.77 L 497.78 180.00 L 497.00 180.88 L 496.88 181.00 L 496.00 181.99 L 495.99 182.00 L 495.30 183.00 L 495.00 183.30 L 494.53 184.00 L 494.00 184.53 L 493.63 185.00 L 493.00 185.63 L 492.72 186.00 L 492.00 186.74 L 491.77 187.00 L 491.00 187.79 L 490.79 188.00 L 490.00 188.90 L 489.90 189.00 L 489.13 190.00 L 489.00 190.13 L 488.43 191.00 L 488.00 191.43 L 487.70 192.00 L 487.00 192.70 L 486.74 193.00 L 486.00 193.80 L 485.81 194.00 L 485.00 194.91 L 484.91 195.00 L 484.42 196.00 L 484.00 196.42 L 483.62 197.00 L 483.00 197.62 L 482.72 198.00 L 482.00 198.72 L 481.75 199.00 L 481.00 199.82 L 480.83 200.00 L 480.02 201.00 L 480.00 201.02 L 479.40 202.00 L 479.00 202.40 L 478.56 203.00 L 478.00 203.56 L 477.69 204.00 L 477.00 204.70 L 476.76 205.00 L 476.00 205.86 L 475.87 206.00 L 475.29 207.00 L 475.00 207.29 L 474.52 208.00 L 474.00 208.52 L 473.26 209.00 L 473.00 209.26 Z"/>
    <path d="M 514.00 229.30 L 513.67 229.00 L 513.11 228.00 L 513.11 227.00 L 513.20 226.00 L 513.22 225.00 L 513.25 224.00 L 513.29 223.00 L 513.37 222.00 L 513.56 221.00 L 514.00 220.40 L 514.14 220.00 L 514.24 219.00 L 514.27 218.00 L 514.41 217.00 L 514.83 216.00 L 515.00 215.79 L 515.19 215.00 L 515.24 214.00 L 515.34 213.00 L 515.57 212.00 L 516.00 211.43 L 516.15 211.00 L 516.25 210.00 L 516.32 209.00 L 516.70 208.00 L 517.00 207.63 L 517.18 207.00 L 517.25 206.00 L 517.34 205.00 L 518.00 204.16 L 518.11 204.00 L 518.25 203.00 L 518.37 202.00 L 519.00 201.16 L 519.09 201.00 L 519.25 200.00 L 519.36 199.00 L 520.00 198.22 L 520.14 198.00 L 520.25 197.00 L 520.47 196.00 L 521.00 195.38 L 521.18 195.00 L 521.27 194.00 L 522.00 193.03 L 522.02 193.00 L 522.24 192.00 L 522.44 191.00 L 523.00 190.40 L 523.21 190.00 L 523.32 189.00 L 524.00 188.05 L 524.03 188.00 L 524.25 187.00 L 524.40 186.00 L 525.00 185.34 L 525.19 185.00 L 525.29 184.00 L 526.00 183.12 L 526.09 183.00 L 526.26 182.00 L 526.92 181.00 L 527.00 180.92 L 527.25 180.00 L 527.67 179.00 L 528.00 178.67 L 528.24 178.00 L 528.63 177.00 L 529.00 176.63 L 529.24 176.00 L 529.57 175.00 L 530.00 174.57 L 530.24 174.00 L 530.68 173.00 L 531.00 172.68 L 531.25 172.00 L 531.97 171.00 L 532.00 170.97 L 532.27 170.00 L 533.00 169.14 L 533.12 169.00 L 533.31 168.00 L 534.00 167.22 L 534.16 167.00 L 534.48 166.00 L 535.00 165.47 L 535.24 165.00 L 536.00 164.06 L 536.06 164.00 L 536.30 163.00 L 537.00 162.27 L 537.21 162.00 L 537.59 161.00 L 538.00 160.59 L 538.27 160.00 L 539.00 159.21 L 539.18 159.00 L 539.43 158.00 L 540.00 157.43 L 540.25 157.00 L 541.00 156.21 L 541.20 156.00 L 541.73 155.00 L 542.00 154.73 L 542.30 154.00 L 543.00 153.30 L 543.25 153.00 L 544.00 152.10 L 544.10 152.00 L 544.42 151.00 L 545.00 150.42 L 545.27 150.00 L 546.00 149.24 L 546.21 149.00 L 547.00 148.00 L 547.71 147.00 L 548.00 146.71 L 548.45 146.00 L 549.00 145.45 L 549.28 145.00 L 550.00 144.27 L 550.24 144.00 L 551.00 143.18 L 551.17 143.00 L 552.00 142.05 L 552.05 142.00 L 552.62 141.00 L 553.00 140.62 L 553.35 140.00 L 554.00 139.35 L 554.28 139.00 L 555.00 138.27 L 555.26 138.00 L 556.00 137.25 L 556.25 137.00 L 557.00 136.22 L 557.20 136.00 L 558.00 135.12 L 558.12 135.00 L 559.00 134.05 L 559.04 134.00 L 559.67 133.00 L 560.00 132.67 L 560.55 132.00 L 561.00 131.55 L 561.40 131.00 L 562.00 130.40 L 562.41 130.00 L 563.00 129.41 L 563.51 129.00 L 564.00 128.51 L 564.48 128.00 L 565.00 127.48 L 565.43 127.00 L 566.00 126.43 L 566.45 126.00 L 567.00 125.45 L 567.42 125.00 L 568.00 124.42 L 568.39 124.00 L 569.00 123.39 L 569.41 123.00 L 570.00 122.41 L 570.59 122.00 L 571.00 121.59 L 572.00 121.01 L 572.01 121.00 L 573.00 120.14 L 573.14 120.00 L 574.00 119.17 L 574.18 119.00 L 575.00 118.24 L 575.25 118.00 L 576.00 117.26 L 576.29 117.00 L 577.00 116.30 L 577.43 116.00 L 578.00 115.43 L 578.64 115.00 L 579.00 114.64 L 579.85 114.00 L 580.00 113.85 L 581.00 113.19 L 581.20 113.00 L 582.00 112.25 L 582.29 112.00 L 583.00 111.30 L 583.47 111.00 L 584.00 110.47 L 585.00 110.04 L 585.05 110.00 L 586.00 109.20 L 586.23 109.00 L 587.00 108.28 L 587.33 108.00 L 588.00 107.34 L 588.67 107.00 L 589.00 106.67 L 590.00 106.17 L 590.19 106.00 L 591.00 105.26 L 591.35 105.00 L 592.00 104.35 L 592.91 104.00 L 593.00 103.91 L 594.00 103.17 L 594.20 103.00 L 595.00 102.26 L 595.30 102.00 L 596.00 101.31 L 597.00 101.05 L 597.06 101.00 L 598.00 100.27 L 598.34 100.00 L 599.00 99.34 L 600.00 99.09 L 600.11 99.00 L 601.00 98.22 L 602.00 98.21 L 602.44 99.00 L 602.00 99.47 L 601.71 100.00 L 601.00 100.83 L 600.87 101.00 L 600.23 102.00 L 600.00 102.23 L 599.50 103.00 L 599.00 103.50 L 598.70 104.00 L 598.00 104.70 L 597.73 105.00 L 597.00 105.79 L 596.81 106.00 L 596.00 106.91 L 595.92 107.00 L 595.30 108.00 L 595.00 108.30 L 594.72 109.00 L 594.00 109.72 L 593.74 110.00 L 593.00 110.78 L 592.78 111.00 L 592.00 111.91 L 591.91 112.00 L 591.21 113.00 L 591.00 113.21 L 590.50 114.00 L 590.00 114.50 L 589.66 115.00 L 589.00 115.66 L 588.73 116.00 L 588.00 116.75 L 587.78 117.00 L 587.00 117.99 L 586.99 118.00 L 586.49 119.00 L 586.00 119.49 L 585.70 120.00 L 585.00 120.70 L 584.74 121.00 L 584.00 121.78 L 583.79 122.00 L 583.00 122.91 L 582.91 123.00 L 582.46 124.00 L 582.00 124.46 L 581.67 125.00 L 581.00 125.67 L 580.75 126.00 L 580.00 126.80 L 579.81 127.00 L 579.00 127.97 L 578.97 128.00 L 578.56 129.00 L 578.00 129.56 L 577.69 130.00 L 577.00 130.70 L 576.76 131.00 L 576.00 131.90 L 575.90 132.00 L 575.15 133.00 L 575.00 133.15 L 574.63 134.00 L 574.00 134.63 L 573.74 135.00 L 573.00 135.77 L 572.79 136.00 L 572.05 137.00 L 572.00 137.05 L 571.62 138.00 L 571.00 138.62 L 570.75 139.00 L 570.00 139.82 L 569.84 140.00 L 569.26 141.00 L 569.00 141.26 L 568.64 142.00 L 568.00 142.64 L 567.74 143.00 L 567.00 143.82 L 566.83 144.00 L 566.14 145.00 L 566.00 145.14 L 565.62 146.00 L 565.00 146.62 L 564.75 147.00 L 564.00 147.85 L 563.86 148.00 L 563.40 149.00 L 563.00 149.40 L 562.71 150.00 L 562.00 150.73 L 561.77 151.00 L 561.00 151.88 L 560.88 152.00 L 560.62 153.00 L 560.00 153.62 L 559.73 154.00 L 559.00 154.80 L 558.82 155.00 L 558.39 156.00 L 558.00 156.39 L 557.66 157.00 L 557.00 157.66 L 556.76 158.00 L 556.00 158.92 L 555.92 159.00 L 555.71 160.00 L 555.00 160.72 L 554.77 161.00 L 554.12 162.00 L 554.00 162.12 L 553.67 163.00 L 553.00 163.67 L 552.75 164.00 L 552.00 164.80 L 551.80 165.00 L 551.50 166.00 L 551.00 166.50 L 550.74 167.00 L 550.00 167.81 L 549.82 168.00 L 549.50 169.00 L 549.00 169.50 L 548.73 170.00 L 548.00 170.81 L 547.83 171.00 L 547.54 172.00 L 547.00 172.54 L 546.73 173.00 L 546.00 173.85 L 545.87 174.00 L 545.62 175.00 L 545.00 175.62 L 544.75 176.00 L 544.00 176.86 L 543.87 177.00 L 543.68 178.00 L 543.00 178.68 L 542.76 179.00 L 542.00 179.98 L 541.98 180.00 L 541.70 181.00 L 541.00 181.72 L 540.78 182.00 L 540.39 183.00 L 540.00 183.39 L 539.74 184.00 L 539.00 184.82 L 538.84 185.00 L 538.65 186.00 L 538.00 186.65 L 537.76 187.00 L 537.32 188.00 L 537.00 188.32 L 536.73 189.00 L 536.00 189.88 L 535.89 190.00 L 535.64 191.00 L 535.00 191.64 L 534.76 192.00 L 534.35 193.00 L 534.00 193.35 L 533.73 194.00 L 533.00 194.85 L 532.87 195.00 L 532.64 196.00 L 532.00 196.64 L 531.75 197.00 L 531.00 197.98 L 530.98 198.00 L 530.73 199.00 L 530.00 199.83 L 529.86 200.00 L 529.66 201.00 L 529.00 201.69 L 528.79 202.00 L 528.54 203.00 L 528.00 203.54 L 527.76 204.00 L 527.06 205.00 L 527.00 205.06 L 526.72 206.00 L 526.00 206.80 L 525.83 207.00 L 525.66 208.00 L 525.00 208.66 L 524.75 209.00 L 524.49 210.00 L 524.00 210.51 L 523.77 211.00 L 523.29 212.00 L 523.00 212.29 L 522.71 213.00 L 522.00 213.77 L 521.82 214.00 L 521.69 215.00 L 521.00 215.75 L 520.81 216.00 L 520.66 217.00 L 520.00 217.69 L 519.79 218.00 L 519.69 219.00 L 519.00 219.76 L 518.82 220.00 L 518.68 221.00 L 518.00 221.73 L 517.80 222.00 L 517.65 223.00 L 517.00 223.68 L 516.79 224.00 L 516.63 225.00 L 516.00 225.63 L 515.74 226.00 L 515.54 227.00 L 515.00 227.70 L 514.86 228.00 L 514.33 229.00 L 514.00 229.30 Z"/>
    <path d="M 347.00 224.38 L 336.00 224.61 L 331.00 222.52 L 326.76 219.00 L 323.28 214.00 L 321.36 208.00 L 321.30 201.00 L 322.41 196.00 L 324.35 191.00 L 329.51 183.00 L 339.00 173.32 L 355.00 164.44 L 363.00 162.34 L 368.00 162.24 L 369.08 163.00 L 368.68 164.00 L 356.00 174.78 L 347.87 185.00 L 343.89 194.00 L 343.79 201.00 L 346.00 204.14 L 351.00 205.28 L 363.00 203.21 L 374.00 199.46 L 376.00 199.32 L 376.52 201.00 L 363.00 215.67 L 356.00 220.68 L 347.00 224.38 Z"/>
    <path d="M 472.00 128.06 L 467.00 127.72 L 459.00 123.90 L 450.00 127.65 L 444.00 128.72 L 442.24 127.00 L 442.23 125.00 L 444.53 119.00 L 451.32 109.00 L 462.00 98.36 L 472.00 92.57 L 484.00 89.30 L 499.00 89.15 L 512.00 91.28 L 515.73 94.00 L 513.00 95.71 L 504.00 97.81 L 490.73 103.00 L 489.98 104.00 L 490.71 114.00 L 488.71 120.00 L 481.00 126.60 L 472.00 128.06 Z"/>
  </g>
</svg>
